<mxfile host="app.diagrams.net" modified="2023-02-28T13:10:16.051Z" agent="5.0 (Macintosh; Intel Mac OS X 10_15_7) AppleWebKit/537.36 (KHTML, like Gecko) Chrome/110.0.0.0 Safari/537.36" etag="gCIs2KtQN_VtLQVa9pTw" version="20.8.23" type="github">
  <diagram name="第 1 页" id="drtUxWVJf8qe9z6vCUvX">
    <mxGraphModel dx="3212" dy="1540" grid="1" gridSize="10" guides="1" tooltips="1" connect="1" arrows="1" fold="1" page="1" pageScale="1" pageWidth="827" pageHeight="1169" math="0" shadow="0">
      <root>
        <mxCell id="0" />
        <mxCell id="1" parent="0" />
        <mxCell id="sb3F21ZvVIw3IBBPBF7H-9" value="" style="rounded=1;whiteSpace=wrap;html=1;strokeWidth=2;fillWeight=4;hachureGap=8;hachureAngle=45;fillColor=#dae8fc;strokeColor=#6c8ebf;fontStyle=1;fontSize=20;" vertex="1" parent="1">
          <mxGeometry x="220" y="580" width="160" height="80" as="geometry" />
        </mxCell>
        <mxCell id="sb3F21ZvVIw3IBBPBF7H-7" value="" style="rounded=1;whiteSpace=wrap;html=1;strokeWidth=2;fillWeight=4;hachureGap=8;hachureAngle=45;fillColor=#dae8fc;strokeColor=#6c8ebf;fontStyle=1;fontSize=20;" vertex="1" parent="1">
          <mxGeometry x="210" y="590" width="160" height="80" as="geometry" />
        </mxCell>
        <mxCell id="sb3F21ZvVIw3IBBPBF7H-5" value="data_engine" style="rounded=1;whiteSpace=wrap;html=1;strokeWidth=2;fillWeight=4;hachureGap=8;hachureAngle=45;fillColor=#dae8fc;strokeColor=#6c8ebf;fontStyle=1;fontSize=20;" vertex="1" parent="1">
          <mxGeometry x="200" y="600" width="160" height="80" as="geometry" />
        </mxCell>
        <mxCell id="sb3F21ZvVIw3IBBPBF7H-10" value="" style="rounded=1;whiteSpace=wrap;html=1;strokeWidth=2;fillWeight=4;hachureGap=8;hachureAngle=45;fillColor=#dae8fc;strokeColor=#6c8ebf;fontStyle=1;fontSize=20;" vertex="1" parent="1">
          <mxGeometry x="780" y="380" width="160" height="80" as="geometry" />
        </mxCell>
        <mxCell id="sb3F21ZvVIw3IBBPBF7H-11" value="" style="rounded=1;whiteSpace=wrap;html=1;strokeWidth=2;fillWeight=4;hachureGap=8;hachureAngle=45;fillColor=#dae8fc;strokeColor=#6c8ebf;fontStyle=1;fontSize=20;" vertex="1" parent="1">
          <mxGeometry x="770" y="390" width="160" height="80" as="geometry" />
        </mxCell>
        <mxCell id="sb3F21ZvVIw3IBBPBF7H-12" value="msg_engine" style="rounded=1;whiteSpace=wrap;html=1;strokeWidth=2;fillWeight=4;hachureGap=8;hachureAngle=45;fillColor=#dae8fc;strokeColor=#6c8ebf;fontStyle=1;fontSize=20;" vertex="1" parent="1">
          <mxGeometry x="760" y="400" width="160" height="80" as="geometry" />
        </mxCell>
        <mxCell id="sb3F21ZvVIw3IBBPBF7H-15" value="redis" style="rounded=1;whiteSpace=wrap;html=1;strokeWidth=2;fillWeight=4;hachureGap=8;hachureAngle=45;fillColor=#d5e8d4;strokeColor=#82b366;fontStyle=1;fontSize=20;" vertex="1" parent="1">
          <mxGeometry x="-40" y="640" width="120" height="80" as="geometry" />
        </mxCell>
        <mxCell id="sb3F21ZvVIw3IBBPBF7H-16" value="mysql" style="rounded=1;whiteSpace=wrap;html=1;strokeWidth=2;fillWeight=4;hachureGap=8;hachureAngle=45;fillColor=#d5e8d4;strokeColor=#82b366;fontStyle=1;fontSize=20;" vertex="1" parent="1">
          <mxGeometry x="-40" y="760" width="120" height="80" as="geometry" />
        </mxCell>
        <mxCell id="sb3F21ZvVIw3IBBPBF7H-17" value="mongoDB" style="rounded=1;whiteSpace=wrap;html=1;strokeWidth=2;fillWeight=4;hachureGap=8;hachureAngle=45;fillColor=#d5e8d4;strokeColor=#82b366;fontStyle=1;fontSize=20;" vertex="1" parent="1">
          <mxGeometry x="-40" y="880" width="120" height="80" as="geometry" />
        </mxCell>
        <mxCell id="sb3F21ZvVIw3IBBPBF7H-18" value="kafka" style="rounded=1;whiteSpace=wrap;html=1;strokeWidth=2;fillWeight=4;hachureGap=8;hachureAngle=45;fillColor=#d5e8d4;strokeColor=#82b366;fontStyle=1;fontSize=20;" vertex="1" parent="1">
          <mxGeometry x="480" y="600" width="280" height="80" as="geometry" />
        </mxCell>
        <mxCell id="sb3F21ZvVIw3IBBPBF7H-19" value="zookeeper" style="rounded=1;whiteSpace=wrap;html=1;strokeWidth=2;fillWeight=4;hachureGap=8;hachureAngle=45;fillColor=#fad9d5;strokeColor=#ae4132;fontStyle=1;fontSize=20;" vertex="1" parent="1">
          <mxGeometry x="-40" y="400" width="120" height="80" as="geometry" />
        </mxCell>
        <mxCell id="sb3F21ZvVIw3IBBPBF7H-21" value="connFD map" style="rounded=1;whiteSpace=wrap;html=1;strokeWidth=2;fillWeight=4;hachureGap=8;hachureAngle=45;fillColor=#d5e8d4;strokeColor=#82b366;fontStyle=1;fontSize=20;" vertex="1" parent="1">
          <mxGeometry x="480" y="320" width="200" height="80" as="geometry" />
        </mxCell>
        <mxCell id="sb3F21ZvVIw3IBBPBF7H-22" value="网关" style="rounded=1;whiteSpace=wrap;html=1;strokeWidth=2;fillWeight=4;hachureGap=8;hachureAngle=45;fillColor=#b0e3e6;strokeColor=#0e8088;fontStyle=1;fontSize=20;" vertex="1" parent="1">
          <mxGeometry x="200" y="200" width="160" height="80" as="geometry" />
        </mxCell>
        <mxCell id="sb3F21ZvVIw3IBBPBF7H-25" value="" style="rounded=1;whiteSpace=wrap;html=1;strokeWidth=2;fillWeight=4;hachureGap=8;hachureAngle=45;fillColor=#dae8fc;strokeColor=#6c8ebf;fontStyle=1;fontSize=20;" vertex="1" parent="1">
          <mxGeometry x="220" y="380" width="160" height="80" as="geometry" />
        </mxCell>
        <mxCell id="sb3F21ZvVIw3IBBPBF7H-26" value="" style="rounded=1;whiteSpace=wrap;html=1;strokeWidth=2;fillWeight=4;hachureGap=8;hachureAngle=45;fillColor=#dae8fc;strokeColor=#6c8ebf;fontStyle=1;fontSize=20;" vertex="1" parent="1">
          <mxGeometry x="210" y="390" width="160" height="80" as="geometry" />
        </mxCell>
        <mxCell id="sb3F21ZvVIw3IBBPBF7H-31" style="edgeStyle=orthogonalEdgeStyle;rounded=0;sketch=1;orthogonalLoop=1;jettySize=auto;html=1;exitX=0.5;exitY=1;exitDx=0;exitDy=0;entryX=0.5;entryY=0;entryDx=0;entryDy=0;strokeWidth=2;fontSize=20;fillColor=#d80073;strokeColor=#A50040;" edge="1" parent="1" source="sb3F21ZvVIw3IBBPBF7H-27" target="sb3F21ZvVIw3IBBPBF7H-5">
          <mxGeometry relative="1" as="geometry" />
        </mxCell>
        <mxCell id="sb3F21ZvVIw3IBBPBF7H-27" value="conn_engine" style="rounded=1;whiteSpace=wrap;html=1;strokeWidth=2;fillWeight=4;hachureGap=8;hachureAngle=45;fillColor=#dae8fc;strokeColor=#6c8ebf;fontStyle=1;fontSize=20;" vertex="1" parent="1">
          <mxGeometry x="200" y="400" width="160" height="80" as="geometry" />
        </mxCell>
        <mxCell id="sb3F21ZvVIw3IBBPBF7H-32" style="edgeStyle=orthogonalEdgeStyle;rounded=0;sketch=1;orthogonalLoop=1;jettySize=auto;html=1;exitX=0.5;exitY=1;exitDx=0;exitDy=0;entryX=0.5;entryY=0;entryDx=0;entryDy=0;strokeWidth=2;fontSize=20;" edge="1" parent="1">
          <mxGeometry relative="1" as="geometry">
            <mxPoint x="800" y="170" as="sourcePoint" />
            <mxPoint x="800" y="290" as="targetPoint" />
          </mxGeometry>
        </mxCell>
        <mxCell id="sb3F21ZvVIw3IBBPBF7H-33" style="edgeStyle=orthogonalEdgeStyle;rounded=0;sketch=1;orthogonalLoop=1;jettySize=auto;html=1;exitX=1;exitY=0.5;exitDx=0;exitDy=0;strokeWidth=2;fontSize=20;entryX=0;entryY=0.5;entryDx=0;entryDy=0;fillColor=#d5e8d4;strokeColor=#82b366;" edge="1" parent="1" source="sb3F21ZvVIw3IBBPBF7H-5" target="sb3F21ZvVIw3IBBPBF7H-18">
          <mxGeometry relative="1" as="geometry">
            <mxPoint x="810" y="180" as="sourcePoint" />
            <mxPoint x="440" y="670" as="targetPoint" />
          </mxGeometry>
        </mxCell>
        <mxCell id="sb3F21ZvVIw3IBBPBF7H-34" style="edgeStyle=orthogonalEdgeStyle;rounded=0;sketch=1;orthogonalLoop=1;jettySize=auto;html=1;exitX=1;exitY=0.5;exitDx=0;exitDy=0;entryX=0.5;entryY=1;entryDx=0;entryDy=0;strokeWidth=2;fontSize=20;" edge="1" parent="1" source="sb3F21ZvVIw3IBBPBF7H-18" target="sb3F21ZvVIw3IBBPBF7H-12">
          <mxGeometry relative="1" as="geometry">
            <mxPoint x="810" y="180" as="sourcePoint" />
            <mxPoint x="810" y="300" as="targetPoint" />
          </mxGeometry>
        </mxCell>
        <mxCell id="sb3F21ZvVIw3IBBPBF7H-35" style="edgeStyle=orthogonalEdgeStyle;rounded=0;sketch=1;orthogonalLoop=1;jettySize=auto;html=1;exitX=0;exitY=0.5;exitDx=0;exitDy=0;entryX=0.5;entryY=1;entryDx=0;entryDy=0;strokeWidth=2;fontSize=20;fillColor=#d5e8d4;strokeColor=#82b366;" edge="1" parent="1" source="sb3F21ZvVIw3IBBPBF7H-5" target="sb3F21ZvVIw3IBBPBF7H-19">
          <mxGeometry relative="1" as="geometry">
            <mxPoint x="810" y="180" as="sourcePoint" />
            <mxPoint x="80" y="560" as="targetPoint" />
            <Array as="points">
              <mxPoint x="140" y="640" />
              <mxPoint x="140" y="560" />
              <mxPoint x="20" y="560" />
            </Array>
          </mxGeometry>
        </mxCell>
        <mxCell id="sb3F21ZvVIw3IBBPBF7H-36" style="edgeStyle=orthogonalEdgeStyle;rounded=0;sketch=1;orthogonalLoop=1;jettySize=auto;html=1;exitX=0.25;exitY=1;exitDx=0;exitDy=0;entryX=1;entryY=0.5;entryDx=0;entryDy=0;strokeWidth=2;fontSize=20;fillColor=#d5e8d4;strokeColor=#82b366;" edge="1" parent="1" source="sb3F21ZvVIw3IBBPBF7H-5" target="sb3F21ZvVIw3IBBPBF7H-15">
          <mxGeometry relative="1" as="geometry">
            <mxPoint x="210" y="650" as="sourcePoint" />
            <mxPoint x="90" y="450" as="targetPoint" />
            <Array as="points">
              <mxPoint x="240" y="760" />
              <mxPoint x="140" y="760" />
              <mxPoint x="140" y="680" />
            </Array>
          </mxGeometry>
        </mxCell>
        <mxCell id="sb3F21ZvVIw3IBBPBF7H-37" style="edgeStyle=orthogonalEdgeStyle;rounded=0;sketch=1;orthogonalLoop=1;jettySize=auto;html=1;exitX=0.5;exitY=1;exitDx=0;exitDy=0;entryX=1;entryY=0.5;entryDx=0;entryDy=0;strokeWidth=2;fontSize=20;fillColor=#d5e8d4;strokeColor=#82b366;" edge="1" parent="1" source="sb3F21ZvVIw3IBBPBF7H-5" target="sb3F21ZvVIw3IBBPBF7H-16">
          <mxGeometry relative="1" as="geometry">
            <mxPoint x="220" y="660" as="sourcePoint" />
            <mxPoint x="90" y="570" as="targetPoint" />
            <Array as="points">
              <mxPoint x="280" y="800" />
            </Array>
          </mxGeometry>
        </mxCell>
        <mxCell id="sb3F21ZvVIw3IBBPBF7H-38" style="edgeStyle=orthogonalEdgeStyle;rounded=0;sketch=1;orthogonalLoop=1;jettySize=auto;html=1;exitX=0.5;exitY=1;exitDx=0;exitDy=0;entryX=1;entryY=0.5;entryDx=0;entryDy=0;strokeWidth=2;fontSize=20;fillColor=#d5e8d4;strokeColor=#82b366;" edge="1" parent="1" source="sb3F21ZvVIw3IBBPBF7H-5" target="sb3F21ZvVIw3IBBPBF7H-17">
          <mxGeometry relative="1" as="geometry">
            <mxPoint x="230" y="670" as="sourcePoint" />
            <mxPoint x="90" y="690" as="targetPoint" />
          </mxGeometry>
        </mxCell>
        <mxCell id="sb3F21ZvVIw3IBBPBF7H-39" style="edgeStyle=orthogonalEdgeStyle;rounded=0;sketch=1;orthogonalLoop=1;jettySize=auto;html=1;exitX=0.5;exitY=1;exitDx=0;exitDy=0;entryX=0.5;entryY=0;entryDx=0;entryDy=0;strokeWidth=2;fontSize=20;" edge="1" parent="1" source="sb3F21ZvVIw3IBBPBF7H-22" target="sb3F21ZvVIw3IBBPBF7H-27">
          <mxGeometry relative="1" as="geometry">
            <mxPoint x="810" y="180" as="sourcePoint" />
            <mxPoint x="810" y="300" as="targetPoint" />
          </mxGeometry>
        </mxCell>
        <mxCell id="sb3F21ZvVIw3IBBPBF7H-40" style="edgeStyle=orthogonalEdgeStyle;rounded=0;sketch=1;orthogonalLoop=1;jettySize=auto;html=1;exitX=0;exitY=0.5;exitDx=0;exitDy=0;entryX=1;entryY=0.5;entryDx=0;entryDy=0;strokeWidth=2;fontSize=20;fillColor=#d5e8d4;strokeColor=#82b366;" edge="1" parent="1" source="sb3F21ZvVIw3IBBPBF7H-12" target="sb3F21ZvVIw3IBBPBF7H-21">
          <mxGeometry relative="1" as="geometry">
            <mxPoint x="810" y="180" as="sourcePoint" />
            <mxPoint x="810" y="300" as="targetPoint" />
          </mxGeometry>
        </mxCell>
        <mxCell id="sb3F21ZvVIw3IBBPBF7H-41" style="edgeStyle=orthogonalEdgeStyle;rounded=0;sketch=1;orthogonalLoop=1;jettySize=auto;html=1;exitX=1;exitY=0.5;exitDx=0;exitDy=0;entryX=0;entryY=0.5;entryDx=0;entryDy=0;strokeWidth=2;fontSize=20;fillColor=#d5e8d4;strokeColor=#82b366;" edge="1" parent="1" source="sb3F21ZvVIw3IBBPBF7H-27" target="sb3F21ZvVIw3IBBPBF7H-21">
          <mxGeometry relative="1" as="geometry">
            <mxPoint x="770" y="450" as="sourcePoint" />
            <mxPoint x="690" y="330" as="targetPoint" />
            <Array as="points">
              <mxPoint x="440" y="440" />
              <mxPoint x="440" y="360" />
            </Array>
          </mxGeometry>
        </mxCell>
        <mxCell id="sb3F21ZvVIw3IBBPBF7H-42" style="edgeStyle=orthogonalEdgeStyle;rounded=0;sketch=1;orthogonalLoop=1;jettySize=auto;html=1;exitX=0.25;exitY=1;exitDx=0;exitDy=0;entryX=0.75;entryY=1;entryDx=0;entryDy=0;strokeWidth=2;fontSize=20;fillColor=#d80073;strokeColor=#A50040;" edge="1" parent="1" source="sb3F21ZvVIw3IBBPBF7H-12" target="sb3F21ZvVIw3IBBPBF7H-27">
          <mxGeometry relative="1" as="geometry">
            <mxPoint x="810" y="180" as="sourcePoint" />
            <mxPoint x="810" y="300" as="targetPoint" />
            <Array as="points">
              <mxPoint x="800" y="520" />
              <mxPoint x="320" y="520" />
            </Array>
          </mxGeometry>
        </mxCell>
        <mxCell id="sb3F21ZvVIw3IBBPBF7H-43" style="edgeStyle=orthogonalEdgeStyle;rounded=0;sketch=1;orthogonalLoop=1;jettySize=auto;html=1;exitX=0;exitY=0.5;exitDx=0;exitDy=0;entryX=1;entryY=0.5;entryDx=0;entryDy=0;strokeWidth=2;fontSize=20;fillColor=#d5e8d4;strokeColor=#82b366;" edge="1" parent="1" source="sb3F21ZvVIw3IBBPBF7H-27" target="sb3F21ZvVIw3IBBPBF7H-19">
          <mxGeometry relative="1" as="geometry">
            <mxPoint x="810" y="180" as="sourcePoint" />
            <mxPoint x="810" y="300" as="targetPoint" />
          </mxGeometry>
        </mxCell>
        <mxCell id="sb3F21ZvVIw3IBBPBF7H-45" value="es" style="rounded=1;whiteSpace=wrap;html=1;strokeWidth=2;fillWeight=4;hachureGap=8;hachureAngle=45;fillColor=#d5e8d4;strokeColor=#82b366;fontStyle=1;fontSize=20;" vertex="1" parent="1">
          <mxGeometry x="360" y="880" width="120" height="80" as="geometry" />
        </mxCell>
        <mxCell id="sb3F21ZvVIw3IBBPBF7H-46" style="edgeStyle=orthogonalEdgeStyle;rounded=0;sketch=1;orthogonalLoop=1;jettySize=auto;html=1;exitX=0.75;exitY=1;exitDx=0;exitDy=0;entryX=0;entryY=0.5;entryDx=0;entryDy=0;strokeWidth=2;fontSize=20;fillColor=#d5e8d4;strokeColor=#82b366;" edge="1" parent="1" source="sb3F21ZvVIw3IBBPBF7H-5" target="sb3F21ZvVIw3IBBPBF7H-45">
          <mxGeometry relative="1" as="geometry">
            <mxPoint x="290" y="690" as="sourcePoint" />
            <mxPoint x="90" y="930" as="targetPoint" />
          </mxGeometry>
        </mxCell>
        <mxCell id="sb3F21ZvVIw3IBBPBF7H-47" value="conn log" style="rounded=1;whiteSpace=wrap;html=1;strokeWidth=2;fillWeight=4;hachureGap=8;hachureAngle=45;fillColor=#fff2cc;strokeColor=#d6b656;fontStyle=1;fontSize=20;" vertex="1" parent="1">
          <mxGeometry x="760" y="800" width="120" height="80" as="geometry" />
        </mxCell>
        <mxCell id="sb3F21ZvVIw3IBBPBF7H-48" value="data log" style="rounded=1;whiteSpace=wrap;html=1;strokeWidth=2;fillWeight=4;hachureGap=8;hachureAngle=45;fillColor=#fff2cc;strokeColor=#d6b656;fontStyle=1;fontSize=20;" vertex="1" parent="1">
          <mxGeometry x="920" y="800" width="120" height="80" as="geometry" />
        </mxCell>
        <mxCell id="sb3F21ZvVIw3IBBPBF7H-49" value="msg log" style="rounded=1;whiteSpace=wrap;html=1;strokeWidth=2;fillWeight=4;hachureGap=8;hachureAngle=45;fillColor=#fff2cc;strokeColor=#d6b656;fontStyle=1;fontSize=20;" vertex="1" parent="1">
          <mxGeometry x="1080" y="800" width="120" height="80" as="geometry" />
        </mxCell>
        <mxCell id="sb3F21ZvVIw3IBBPBF7H-50" value="log_transfer" style="rounded=1;whiteSpace=wrap;html=1;strokeWidth=2;fillWeight=4;hachureGap=8;hachureAngle=45;fillColor=#dae8fc;strokeColor=#6c8ebf;fontStyle=1;fontSize=20;" vertex="1" parent="1">
          <mxGeometry x="900" y="1000" width="160" height="80" as="geometry" />
        </mxCell>
        <mxCell id="sb3F21ZvVIw3IBBPBF7H-51" style="edgeStyle=orthogonalEdgeStyle;rounded=0;sketch=1;orthogonalLoop=1;jettySize=auto;html=1;exitX=0.5;exitY=1;exitDx=0;exitDy=0;entryX=0.5;entryY=0;entryDx=0;entryDy=0;strokeWidth=2;fontSize=20;" edge="1" parent="1" source="sb3F21ZvVIw3IBBPBF7H-47" target="sb3F21ZvVIw3IBBPBF7H-50">
          <mxGeometry relative="1" as="geometry">
            <mxPoint x="1100" y="560" as="sourcePoint" />
            <mxPoint x="1100" y="680" as="targetPoint" />
          </mxGeometry>
        </mxCell>
        <mxCell id="sb3F21ZvVIw3IBBPBF7H-53" style="edgeStyle=orthogonalEdgeStyle;rounded=0;sketch=1;orthogonalLoop=1;jettySize=auto;html=1;exitX=0.5;exitY=1;exitDx=0;exitDy=0;entryX=0.5;entryY=0;entryDx=0;entryDy=0;strokeWidth=2;fontSize=20;" edge="1" parent="1" source="sb3F21ZvVIw3IBBPBF7H-48" target="sb3F21ZvVIw3IBBPBF7H-50">
          <mxGeometry relative="1" as="geometry">
            <mxPoint x="830" y="890" as="sourcePoint" />
            <mxPoint x="980" y="1030" as="targetPoint" />
          </mxGeometry>
        </mxCell>
        <mxCell id="sb3F21ZvVIw3IBBPBF7H-54" style="edgeStyle=orthogonalEdgeStyle;rounded=0;sketch=1;orthogonalLoop=1;jettySize=auto;html=1;exitX=0.5;exitY=1;exitDx=0;exitDy=0;strokeWidth=2;fontSize=20;entryX=0.5;entryY=0;entryDx=0;entryDy=0;" edge="1" parent="1" source="sb3F21ZvVIw3IBBPBF7H-49" target="sb3F21ZvVIw3IBBPBF7H-50">
          <mxGeometry relative="1" as="geometry">
            <mxPoint x="830" y="890" as="sourcePoint" />
            <mxPoint x="1090" y="990" as="targetPoint" />
          </mxGeometry>
        </mxCell>
      </root>
    </mxGraphModel>
  </diagram>
</mxfile>
